<svg xmlns="http://www.w3.org/2000/svg" xmlns:xlink="http://www.w3.org/1999/xlink" width="700" height="400" viewBox="0 0 700 400"><defs><radialGradient id="a" cx="0.5" cy="0.5" r="0.5" gradientUnits="objectBoundingBox"><stop offset="0" stop-opacity="0.302"/><stop offset="1" stop-opacity="0"/></radialGradient><radialGradient id="d" cx="0.5" cy="0.5" r="0.5" gradientUnits="objectBoundingBox"><stop offset="0" stop-opacity="0.149"/><stop offset="0.882" stop-opacity="0.024"/><stop offset="1" stop-opacity="0"/></radialGradient><clipPath id="f"><rect width="53" height="81" transform="translate(-16.43 -5.398)" fill="#fff" stroke="#707070" stroke-width="1"/></clipPath><radialGradient id="g" cx="0.469" cy="0.5" r="0.5" gradientUnits="objectBoundingBox"><stop offset="0" stop-opacity="0.4"/><stop offset="1" stop-opacity="0"/></radialGradient><clipPath id="h"><path d="M0,0H49a6,6,0,0,1,6,6V23a0,0,0,0,1,0,0H0a0,0,0,0,1,0,0V0A0,0,0,0,1,0,0Z" transform="translate(66.43 159.62)" fill="#c3c4c7"/></clipPath><radialGradient id="i" cx="0.5" cy="0.5" r="0.5" gradientUnits="objectBoundingBox"><stop offset="0" stop-opacity="0.988"/><stop offset="0.908" stop-opacity="0"/><stop offset="1" stop-opacity="0"/></radialGradient></defs><g fill="#fff" stroke="#707070" stroke-width="1" opacity="0"><rect width="700" height="400" stroke="none"/><rect x="0.5" y="0.5" width="699" height="399" fill="none"/></g><ellipse cx="62" cy="6.5" rx="62" ry="6.5" transform="translate(18 359)" fill="url(#a)"/><ellipse cx="23.5" cy="6.5" rx="23.5" ry="6.5" transform="translate(308 356)" fill="url(#a)"/><ellipse cx="79" cy="6.5" rx="79" ry="6.5" transform="translate(362 357)" fill="url(#a)"/><ellipse cx="69" cy="9.5" rx="69" ry="9.5" transform="translate(561 359)" fill="url(#d)"/><ellipse cx="280.5" cy="6.5" rx="280.5" ry="6.5" transform="translate(36 343)" fill="url(#a)"/><g transform="translate(-80 -447)"><g transform="translate(-39.815 313.753)"><g transform="translate(234.606 162.247)"><path d="M18.393,0H451.605A18.412,18.412,0,0,1,470,18.429V301.572A18.411,18.411,0,0,1,451.606,320H18.394A18.411,18.411,0,0,1,0,301.572V18.427A18.41,18.41,0,0,1,18.393,0Z" transform="translate(0.209)" fill="#ebedf2"/><path d="M730.969,188.247v-15.6a10.422,10.422,0,0,0-10.444-10.4H271.414a10.422,10.422,0,0,0-10.445,10.4v15.6Z" transform="translate(-260.76 -162.247)" fill="#c3c4c7"/><rect width="412.016" height="21.399" rx="8" transform="translate(32.112 32.834)" fill="#fff"/><path d="M281.594,223.5l-4.995,3.829a1.173,1.173,0,0,0-.295.781v6.319a.736.736,0,0,0,.722.75h2.936a.736.736,0,0,0,.722-.75v-4.009a1.76,1.76,0,0,1,1.386-1.8,1.644,1.644,0,0,1,1.856,1.667v4.138a.736.736,0,0,0,.721.75h2.937a.736.736,0,0,0,.722-.75v-6.319a1.173,1.173,0,0,0-.295-.781l-4.995-3.829A.945.945,0,0,0,281.594,223.5Z" transform="translate(-265.597 -185.582)" fill="none" stroke="#9f9f9f" stroke-linecap="round" stroke-linejoin="round" stroke-width="2"/><g transform="translate(41.832 38)" opacity="0.6"><g transform="translate(-2 1)"><path d="M343.016,233.043a4.187,4.187,0,1,1-4.186-4.1A4.144,4.144,0,0,1,343.016,233.043Z" transform="translate(-334.643 -228.941)" fill="none" stroke="#9f9f9f" stroke-linecap="round" stroke-linejoin="round" stroke-width="2"/><line x1="1.751" y1="2.034" transform="translate(7.477 7.991)" stroke-width="2" stroke="#9f9f9f" stroke-linecap="round" stroke-linejoin="round" fill="none"/></g></g><path d="M6.328,0h76.02a6.329,6.329,0,0,1,6.329,6.329V99.083a6.329,6.329,0,0,1-6.329,6.329H6.331A6.331,6.331,0,0,1,0,99.081V6.328A6.328,6.328,0,0,1,6.328,0Z" transform="translate(365.254 197.994)" fill="#fff"/><path d="M6.328,0h76.02a6.329,6.329,0,0,1,6.329,6.329V28.108a6.329,6.329,0,0,1-6.329,6.329H6.331A6.331,6.331,0,0,1,0,28.106V6.328A6.328,6.328,0,0,1,6.328,0Z" transform="translate(365.254 156.394)" fill="#fff"/><path d="M616.578,362.81H282.455c-3.4,0-6.152-1.608-6.152-3.594V283.422c0-1.986,2.755-3.594,6.152-3.594H616.578c3.4,0,6.152,1.608,6.152,3.594v75.795C622.729,361.2,619.973,362.81,616.578,362.81Z" transform="translate(-267.596 -213.066)" fill="#fff"/><g transform="translate(16.765 80.898)"><path d="M618.778,388.775H291.739a1.161,1.161,0,0,1-1.243-1.059v-6.891a1.161,1.161,0,0,1,1.243-1.058H618.778a1.161,1.161,0,0,1,1.243,1.058v6.891A1.161,1.161,0,0,1,618.778,388.775Z" transform="translate(-290.496 -337.158)" fill="#ebedf2"/><path d="M617.253,336.786H293.262c-1.527,0-2.766-.918-2.766-2.053V306.776c0-1.133,1.239-2.052,2.766-2.052H617.253c1.529,0,2.768.919,2.768,2.052v27.957C620.021,335.868,618.781,336.786,617.253,336.786Z" transform="translate(-290.496 -304.724)" fill="#d6d8dc"/></g><path d="M1012.519,526.139h18.766a1.852,1.852,0,0,0,1.852-1.852h0a1.853,1.853,0,0,0-1.852-1.852h-18.766a1.852,1.852,0,0,0-1.851,1.852h0A1.852,1.852,0,0,0,1012.519,526.139Z" transform="translate(-584.99 -317.921)" fill="#9a9da2"/><path d="M935.847,551.333a5.906,5.906,0,1,1-5.906-5.906A5.906,5.906,0,0,1,935.847,551.333Z" transform="translate(-547.547 -327.858)" fill="#8b96d2"/><rect width="48.352" height="7.405" rx="3" transform="translate(394.344 219.674)" fill="#d6d8dc"/><rect width="66.208" height="7.405" rx="3" transform="translate(376.488 236.99)" fill="#d6d8dc"/><path d="M989.592,638.43H926.442c-.653,0-1.18-.39-1.18-.872V631.9c0-.482.527-.872,1.18-.872h63.151c.652,0,1.182.39,1.182.872v5.662C990.774,638.04,990.244,638.43,989.592,638.43Z" transform="translate(-548.078 -364.854)" fill="#9a9da2"/><rect width="66.208" height="7.406" rx="3" transform="translate(376.488 283.487)" fill="#d6d8dc"/><path d="M1003.83,227.7l1.137,2.211a1.806,1.806,0,0,0,1.364.951l2.543.355a.518.518,0,0,1,.3.891l-1.84,1.72a1.694,1.694,0,0,0-.522,1.539l.434,2.429a.54.54,0,0,1-.79.551l-2.274-1.148a1.882,1.882,0,0,0-1.687,0l-2.274,1.148a.54.54,0,0,1-.79-.551l.434-2.429a1.692,1.692,0,0,0-.521-1.539l-1.84-1.72a.517.517,0,0,1,.3-.891l2.543-.355a1.808,1.808,0,0,0,1.365-.951l1.137-2.211A.556.556,0,0,1,1003.83,227.7Z" transform="translate(-574.23 -189.41)" fill="#ff9800"/><path d="M-2158.791-463.974a1.458,1.458,0,0,1,1.4-1.508,1.458,1.458,0,0,1,1.4,1.508,1.458,1.458,0,0,1-1.4,1.509A1.458,1.458,0,0,1-2158.791-463.974Zm0-5.258a1.458,1.458,0,0,1,1.4-1.509,1.458,1.458,0,0,1,1.4,1.509,1.458,1.458,0,0,1-1.4,1.509A1.458,1.458,0,0,1-2158.791-469.232Zm0-5.259a1.458,1.458,0,0,1,1.4-1.509,1.458,1.458,0,0,1,1.4,1.509,1.457,1.457,0,0,1-1.4,1.508A1.457,1.457,0,0,1-2158.791-474.491Z" transform="translate(2610.226 512.765)" fill="#9f9f9f" stroke="rgba(0,0,0,0)" stroke-miterlimit="10" stroke-width="1"/><path d="M352.792,186.516a5.249,5.249,0,1,1,5.249-5.249A5.249,5.249,0,0,1,352.792,186.516Z" transform="translate(-298.386 -168.198)" fill="#689f38"/><path d="M320.572,186.516a5.249,5.249,0,1,1,5.249-5.249A5.249,5.249,0,0,1,320.572,186.516Z" transform="translate(-284.46 -168.198)" fill="#ff9800"/><path d="M288.354,186.516a5.249,5.249,0,1,1,5.249-5.249A5.25,5.25,0,0,1,288.354,186.516Z" transform="translate(-270.536 -168.198)" fill="#ee4957"/><path d="M7,0h6.674a7,7,0,0,1,7,7v4.241a7,7,0,0,1-7,7H7a7,7,0,0,1-7-7V7A7,7,0,0,1,7,0Z" transform="translate(447.028 182.912) rotate(-180)" fill="#c3c4c7"/><path d="M926.766,459.34h38.3a1.507,1.507,0,0,1,0,3.013h-38.3a1.507,1.507,0,0,1,0-3.013Z" transform="translate(-548.078 -290.651)" fill="#d6d8dc" style="mix-blend-mode:multiply;isolation:isolate"/><path d="M961.44,471.292h18.607a1.506,1.506,0,0,1,0,3.013H961.44a1.506,1.506,0,0,1,0-3.013Z" transform="translate(-563.063 -295.817)" fill="#d6d8dc" style="mix-blend-mode:multiply;isolation:isolate"/><path d="M6.328,0h76.02a6.329,6.329,0,0,1,6.329,6.329V28.108a6.329,6.329,0,0,1-6.329,6.329H6.331A6.331,6.331,0,0,1,0,28.106V6.328A6.328,6.328,0,0,1,6.328,0Z" transform="translate(365.254 113.389)" fill="#fff"/><path d="M6.328,0h76.02a6.329,6.329,0,0,1,6.329,6.329V28.108a6.329,6.329,0,0,1-6.329,6.329H6.331A6.331,6.331,0,0,1,0,28.106V6.328A6.328,6.328,0,0,1,6.328,0Z" transform="translate(365.254 69.033)" fill="#fff"/><path d="M8.783,0H159.725a8.784,8.784,0,0,1,8.784,8.784V137.53a8.784,8.784,0,0,1-8.784,8.784H8.787A8.787,8.787,0,0,1,0,137.527V8.783A8.783,8.783,0,0,1,8.783,0Z" transform="translate(186.959 157.092)" fill="#fff"/><g transform="translate(372.969 121.067)"><rect width="21.626" height="19.081" rx="7" transform="translate(21.626 19.081) rotate(180)" fill="#c3c4c7"/><path d="M1012.373,376.573h-40.06a1.576,1.576,0,0,0,0,3.152h40.06a1.576,1.576,0,0,0,0-3.152Z" transform="translate(-940.702 -375.945)" fill="#d6d8dc" style="mix-blend-mode:multiply;isolation:isolate"/><path d="M1012.373,389.166h-40.06a1.576,1.576,0,0,0,0,3.152h40.06a1.576,1.576,0,0,0,0-3.152Z" transform="translate(-940.702 -381.388)" fill="#d6d8dc" style="mix-blend-mode:multiply;isolation:isolate"/><path d="M991.778,401.759H972.313a1.576,1.576,0,0,0,0,3.152h19.465a1.576,1.576,0,0,0,0-3.152Z" transform="translate(-940.702 -386.831)" fill="#d6d8dc" style="mix-blend-mode:multiply;isolation:isolate"/></g><g transform="translate(372.969 76.711)"><rect width="21.626" height="19.081" rx="7" transform="translate(21.626 19.081) rotate(180)" fill="#c3c4c7"/><path d="M1012.373,298.454h-40.06a1.576,1.576,0,0,0,0,3.152h40.06a1.576,1.576,0,0,0,0-3.152Z" transform="translate(-940.702 -297.826)" fill="#d6d8dc" style="mix-blend-mode:multiply;isolation:isolate"/><path d="M1012.373,311.047h-40.06a1.576,1.576,0,0,0,0,3.152h40.06a1.576,1.576,0,0,0,0-3.152Z" transform="translate(-940.702 -303.269)" fill="#d6d8dc" style="mix-blend-mode:multiply;isolation:isolate"/><path d="M991.778,323.64H972.313a1.576,1.576,0,0,0,0,3.151h19.465a1.576,1.576,0,1,0,0-3.151Z" transform="translate(-940.702 -308.712)" fill="#d6d8dc" style="mix-blend-mode:multiply;isolation:isolate"/></g></g><g transform="translate(139.815 257.627)"><g transform="translate(145.176 0)"><path d="M539.839,446.188c-3.063,2.837-13.518,31.748-13.518,31.748s-37.336,4.51-39.239,4.109c-1.376-.291-1.672,2.892-.088,3.278s40.54,3.338,45.07-2.275c1.689-2.093,12.84-29.677,12.609-33.7S541.949,444.234,539.839,446.188Z" transform="translate(-434.58 -379.939)" fill="#3f51b5"/><path d="M463.378,509.43a13.235,13.235,0,0,0-3.052-.071s-7.834,4-8.957,3.947-15.383-.333-15.383-.333c.217-1.091,3.322-1.429,3.322-1.429l-9.01-1.471c.783-1.286,2.952-.929,2.952-.929l-2.342-1.28c1.206-1.126,6.206.245,6.206.245l-3.02-1.81c1.168-1.606,14.912,3.278,14.912,3.278l8.083-4.453s-5.341-.639-4.848-4.168c.128-.734,9.637,4.586,9.637,4.586l2.241.641Z" transform="translate(-410.538 -403.988)" fill="#ec9971"/><path d="M487.345,513.161c.594.066,2.359.128,3.351.277l.59-3.679a34.751,34.751,0,0,1-3.885-.1C486.318,510.624,486.752,513.095,487.345,513.161Z" transform="translate(-434.931 -407.778)" fill="#292560"/><path d="M629.538,722.388c1.223,2.57,4.06,3.359,2.455,11.29l-.666-.012s-.421-4.248-1.506-5.241c-.351-.674.108,2.98-.912,4.088s-4.773,4.594-6.032,3.7c-.521-.371,1.861-2.824,2.755-5.782.75-2.483.344-5.312.724-5.576Z" transform="translate(-493.74 -499.721)" fill="#571c00"/><path d="M587.568,740.243c.39,2.58,1.676,4.079,1.261,5.739-.335,1.338-2.047,5-2.888,7.1l-.9-.017s.374-4.675.116-4.615-2.156,3.506-3.477,4.232-6.215,1.426-6.872.516c-.374-.518,3.634-2.307,5.573-5.614,1.311-2.237,1.973-3.675,1.941-4.58C582.865,742.813,587.568,740.243,587.568,740.243Z" transform="translate(-472.987 -507.438)" fill="#571c00"/><path d="M565.2,514.405s-1.368,4.051-2.293,5.989a55.1,55.1,0,0,0-5.828,24.1c-.537,26.155,36.1,85.644,40.871,90.47l3.562-1.728S583.883,599.788,582.1,577.9s3.629-36.971,6.318-38.8-2.1-17.719-2.1-17.719Z" transform="translate(-465.33 -409.83)" fill="#42413b"/><path d="M587.9,649.258s-5.339,2.628-5.572,1.2c-.71-2.752-15.122-53.6-1.188-101.751l12.932-2.721.035-19.288s9.171,14.016,6.346,25.717-7.866,16.179-13.3,37.626S587.9,649.258,587.9,649.258Z" transform="translate(-473.121 -415.145)" fill="#42413b"/><path d="M630.932,721.186l-3.562,1.728a26.89,26.89,0,0,1-2.224-2.866l4.121-2.145C630.3,719.989,630.932,721.186,630.932,721.186Z" transform="translate(-494.752 -497.782)" fill="#a3968d"/><path d="M592.671,739.487s-5.339,2.628-5.572,1.2c-.1-.382-.46-1.69-.974-3.784l5.959-1.439C592.429,738,592.671,739.487,592.671,739.487Z" transform="translate(-477.887 -505.374)" fill="#a3968d"/><path d="M588.942,525.373c1.326,2.155,2.857,5.123,2.857,5.123s-20.847,2.276-28.3-.955l2.423-5.505Z" transform="translate(-468.108 -413.993)" fill="#571c00"/><path d="M590.462,489.971c3.361-7.717,3.955-44.191,2.974-47.16s-15.91-1.745-18.414,1.645c-2.059,2.788-2.176,15.165-2.673,27.63-.2,5.12-4.936,16.656-4.936,16.656C574.707,493.3,590.462,489.971,590.462,489.971Z" transform="translate(-469.8 -378.161)" fill="#3f51b5"/><path d="M591.067,466.11c-2.993,7.215-11.674,3.023-14.411,3.249s-7.638.907-8.942-2.471c-3.334-8.391,7.362-16.924,8.085-19.574.628-2.305,5.8,10.037,9.521,9.568C589.787,456.321,592.495,462.67,591.067,466.11Z" transform="translate(-469.652 -380.709)" fill="#3f51b5"/><path d="M591.144,522.59a14.357,14.357,0,0,1-.682,2.094s-15.755,3.334-23.048-1.228c0,0,.317-.775.792-2.009C573.931,523.266,585.54,522.9,591.144,522.59Z" transform="translate(-469.8 -412.874)" fill="#292560"/><path d="M589.13,340.105c-5.584-6.761-10.787-9.031-17.052-9.691s-16.932.1-22.486,7.878-12.3,34.836-3.24,45.33c7.041,8.147,35.677,10.25,43.984,1.868S594.714,346.867,589.13,340.105Z" transform="translate(-458.781 -330.229)" fill="#c73b1d"/><path d="M545.262,384.982c1.463.009,3.68,2.083,4.289,2.662l-.566,4.711c-.466.076-5.572,1.464-5.991-2.833C542.912,388.684,542.436,384.965,545.262,384.982Z" transform="translate(-459.211 -353.893)" fill="#d3735a"/><path d="M545.165,390.486a1.783,1.783,0,0,1,1.857-.767c1.085.258,1.7,1.988,1.7,1.988a3.954,3.954,0,0,0-2.837,1.266c.319-1.784,1.44-1.794,1.44-1.794s-.244-.656-.516-.662A4.992,4.992,0,0,0,545.165,390.486Z" transform="translate(-460.184 -355.919)" fill="#aa6e4e"/><path d="M592.959,419.731s-1.011,11.322,1.005,15.039c0,0-7.636,1.8-7.041.348s-.016-14.2-.016-14.2Z" transform="translate(-478.218 -368.912)" fill="#e9886b"/><path d="M569.113,388.024c-3.278-.06-16.081-2.844-18.273-21.083-2.424-19.63,11.844-28.343,20.26-28.188,14.11.26,27.686,12.934,20.616,31.3C584.962,387.6,572.392,388.084,569.113,388.024Z" transform="translate(-462.519 -333.912)" fill="#ec9971"/><path d="M589.087,380.182s-.013-.1-.034-.271a3.05,3.05,0,0,1,.064-.552,3.442,3.442,0,0,1,.206-.537,2.938,2.938,0,0,1,.355-.528,3.488,3.488,0,0,1,.49-.492,3.142,3.142,0,0,1,.638-.393,3,3,0,0,1,.763-.247c.139-.018.278-.032.418-.043a3.822,3.822,0,0,1,.425.031,1.553,1.553,0,0,1,.409.1,1.862,1.862,0,0,1,.377.153,2.555,2.555,0,0,1,.6.43,2.3,2.3,0,0,1,.409.471c.1.155.206.294.27.422s.1.244.144.338c.079.186.117.295.117.295a.7.7,0,0,1-1.205.664l-.085-.105s-.053-.068-.133-.188c-.039-.061-.087-.133-.142-.217s-.13-.149-.2-.237a1.158,1.158,0,0,0-.242-.227,1.254,1.254,0,0,0-.27-.179c-.044-.04-.1-.03-.146-.053a.365.365,0,0,0-.149-.039c-.053,0-.106-.019-.161-.02a1.226,1.226,0,0,1-.171.014,1.39,1.39,0,0,0-.357.109,2.68,2.68,0,0,0-.346.189,2.1,2.1,0,0,0-.281.246,1.479,1.479,0,0,0-.2.249c-.056.077-.081.153-.116.206,0,.026-.028.013-.043.061,0,.174-.006.273-.006.273v.006a.7.7,0,0,1-1.4.077Z" transform="translate(-479.153 -350.495)" fill="#a26a4a"/><path d="M564.38,380.172l-.018-.093c-.013-.063-.028-.144-.057-.249a4.591,4.591,0,0,0-.3-.844,3.81,3.81,0,0,0-.314-.547,2.939,2.939,0,0,0-.5-.566,2.4,2.4,0,0,0-.776-.442,1.844,1.844,0,0,0-.462-.106l-.119-.016H561.7a1.644,1.644,0,0,0-.187.007c-.085.009-.174.018-.255.031l-.208.045a3.344,3.344,0,0,0-.389.125,3.892,3.892,0,0,0-.688.351,3.528,3.528,0,0,0-.556.457,2.943,2.943,0,0,0-.421.51,1.837,1.837,0,0,0-.153.259,1.7,1.7,0,0,0-.114.252,2.425,2.425,0,0,0-.132.435,1.878,1.878,0,0,0-.039.293c-.007.068-.01.1-.01.1a.647.647,0,0,0,1.27.227l.032-.121s.005-.017.013-.049a1.251,1.251,0,0,1,.037-.136,1.171,1.171,0,0,1,.086-.206.641.641,0,0,1,.071-.122,1.046,1.046,0,0,1,.093-.132,1.686,1.686,0,0,1,.257-.277,2.641,2.641,0,0,1,.354-.261,2.372,2.372,0,0,1,.422-.2,1.95,1.95,0,0,1,.219-.066l.107-.022a.547.547,0,0,0,.066-.008.859.859,0,0,1,.135,0h.027l0,0,.041.006a.523.523,0,0,1,.16.032.931.931,0,0,1,.3.162,2.259,2.259,0,0,1,.276.291,2.5,2.5,0,0,1,.227.342c.066.115.12.228.167.33s.084.194.113.268.048.132.063.171.02.057.02.057l0,.014a.654.654,0,0,0,1.271-.3Z" transform="translate(-465.967 -350.576)" fill="#a26a4a"/><path d="M585.674,400.972l-17.216,1.314s3.886,4.827,8.523,3.962S585.674,400.972,585.674,400.972Z" transform="translate(-470.251 -360.804)" fill="#f0deca"/><path d="M559.1,345.874c4.391-5.2,11.648-8.764,16.1-8.682,14.112.261,28.406,13.891,21.336,32.262-.69,1.79-1.749,4.193-3.369,4.786,0,0,2.619-7.845-.441-8.508-5.5-1.194-5.271-8.12-5.271-8.12s-7.339-4.514-8.223-9.528l-.015,3.8a18.439,18.439,0,0,1-4.864-6.069,32.68,32.68,0,0,0,1.617,5.329c-4.067-.9-5.669-6.627-5.669-6.627l.968,5.817c-5.1-1.475-5.558-5.759-6.933-6.606S559.1,345.874,559.1,345.874Z" transform="translate(-466.205 -333.238)" fill="#c73b1d"/><g transform="translate(86.279 21.518)"><path d="M597.108,370.392c1.136,2.731.35,8.645-1.031,9.975s-11.52.127-13.716-.252-1.518-9.515.2-11.007S595.972,367.661,597.108,370.392Z" transform="translate(-561.941 -368.127)" fill="none" stroke="#0a98fd" stroke-miterlimit="10" stroke-width="2"/><path d="M561.555,370.075c.459,2.51.3,8.645-.952,9.977s-11.525,1.192-12.435-.228-1.067-10.459.2-11.007S561.095,367.565,561.555,370.075Z" transform="translate(-547.451 -368.197)" fill="none" stroke="#0a98fd" stroke-miterlimit="10" stroke-width="2"/><path d="M615.8,383.415s1.9-3.087-.459-3.855a10.348,10.348,0,0,0-5.034-.092" transform="translate(-574.619 -372.909)" fill="none" stroke="#0a98fd" stroke-miterlimit="10" stroke-width="2"/><path d="M576.779,375.743a10.92,10.92,0,0,0-5.645-.1" transform="translate(-557.687 -371.232)" fill="none" stroke="#0a98fd" stroke-miterlimit="10" stroke-width="2"/></g><path d="M619.93,384.662c-2.014-.037-4.767.9-5.615,3.539a2.493,2.493,0,0,0,.92,2.732c.429.307,1.335.319,1.927.615a4.289,4.289,0,0,0,5.627-1.128C623.86,388.814,622.823,384.715,619.93,384.662Z" transform="translate(-490.02 -353.755)" fill="#d3735a"/><path d="M621.394,388.941c-.213-.291-.719-.491-2.388-.14-1.251.264-2.611,1.715-2.422,2.286.047.144,1.764-.594,2.51-.324a13.682,13.682,0,0,1,2.424,2c.5-1.3-1.789-2.7-2.579-2.813C619.613,389.036,621.553,389.2,621.394,388.941Z" transform="translate(-491.044 -355.463)" fill="#aa6e4e"/><path d="M575.014,378.479c-.576-.011-.456,1.952-2.143,3.861-2.077,1.368-2.624,4.228-.911,5.135C578.353,389.878,575.59,378.49,575.014,378.479Z" transform="translate(-471.325 -351.083)" fill="#d3735a"/><path d="M592.083,440.619c-.2.305-1.076,3.1-3.454,3.154a2.459,2.459,0,0,1-2.5-2.409s-1.124.7-1.472.89-.107,4.459.21,4.588,3.491-1.921,3.491-1.921,2.309,2.37,2.7,2.377,4.867-6.608,4.867-6.608S592.279,440.314,592.083,440.619Z" transform="translate(-477.181 -377.888)" fill="#292560"/><path d="M585.227,529.171c.019.379.221,3.916-.078,4.218s-4.685.331-4.97-.091-.345-3.934.078-4.219S585.208,528.792,585.227,529.171Z" transform="translate(-475.219 -416.084)" fill="#a3968d"/><path d="M591.067,466.329c-2.993,7.215-11.674,3.023-14.411,3.249s-7.638.907-8.942-2.471c-3.334-8.391,7.362-16.924,8.085-19.574" transform="translate(-469.652 -380.928)" fill="none" stroke="#292560" stroke-miterlimit="10" stroke-width="0.575"/><path d="M596.73,481.893c-.988.89-3.373.093-6.448-1.652C580.2,474.516,562.687,458.6,562.687,458.6s1-4.108,2.576-2.77c9.261,8.218,21.936,11.939,24.132,13.386,1.2-11.311-3.76-26.425-3.76-26.425s-.587-4.035,4.318-3.945C597.524,438.716,600.959,478.081,596.73,481.893Z" transform="translate(-467.757 -377.173)" fill="#3f51b5"/><path d="M590.282,495.278c-10.087-5.724-27.595-21.641-27.595-21.641" transform="translate(-467.757 -392.21)" fill="none" stroke="#292560" stroke-miterlimit="10" stroke-width="0.575"/><path d="M573.114,468.767c8.72,6.365,18.847,9.421,20.788,10.7.571-5.353-.3-11.852-1.314-16.9" transform="translate(-472.264 -387.424)" fill="none" stroke="#292560" stroke-miterlimit="10" stroke-width="0.575"/><path d="M611.94,494.328s-.68-1.1-1.239-1.2" transform="translate(-488.509 -400.635)" fill="none" stroke="#292560" stroke-miterlimit="10" stroke-width="0.575"/><path d="M542.678,497.889s-.055-1.295-.5-1.652" transform="translate(-458.895 -401.978)" fill="none" stroke="#292560" stroke-miterlimit="10" stroke-width="0.575"/><path d="M606.313,464.351s-1.049-1.166-1.948-.965" transform="translate(-485.77 -387.769)" fill="none" stroke="#292560" stroke-miterlimit="10" stroke-width="0.575"/><path d="M543.715,497.515s-.345-1.531-1.225-1.795" transform="translate(-459.028 -401.754)" fill="none" stroke="#292560" stroke-miterlimit="10" stroke-width="0.575"/><line x1="4.946" y1="4.354" transform="translate(102.617 129.683)" fill="none" stroke="#363531" stroke-miterlimit="10" stroke-width="1.15"/><path d="M575.333,599.866c.557-11.732,4.478-35.433,5.806-36.391S593.489,560,593.489,560" transform="translate(-473.223 -429.536)" fill="none" stroke="#363531" stroke-miterlimit="10" stroke-width="0.862"/><path d="M597.31,622.252c-.841,2.662-1.7,5.659-2.569,9.09a82.546,82.546,0,0,0-2.1,16.323" transform="translate(-480.701 -456.442)" fill="none" stroke="#363531" stroke-miterlimit="10" stroke-width="0.862"/><g transform="translate(0 67.282)"><path d="M6.328,0H82.347a6.33,6.33,0,0,1,6.33,6.33V28.108a6.329,6.329,0,0,1-6.329,6.329H6.332A6.332,6.332,0,0,1,0,28.105V6.328A6.328,6.328,0,0,1,6.328,0Z" fill="#19ad87"/><g transform="translate(8.508 8.277)"><rect width="21.626" height="19.081" rx="7" transform="translate(21.626 19.081) rotate(180)" fill="#fff" opacity="0.9"/><g opacity="0.4"><path d="M505.017,464.408H464.956a1.576,1.576,0,0,0,0,3.152h40.061a1.576,1.576,0,0,0,0-3.152Z" transform="translate(-433.345 -463.78)" fill="#fff"/><path d="M505.017,477H464.956a1.576,1.576,0,0,0,0,3.152h40.061a1.576,1.576,0,0,0,0-3.152Z" transform="translate(-433.345 -469.223)" fill="#fff"/><path d="M484.421,489.594H464.956a1.576,1.576,0,0,0,0,3.152h19.465a1.576,1.576,0,0,0,0-3.152Z" transform="translate(-433.345 -474.666)" fill="#fff"/></g></g></g><path d="M549.5,451.017l-1.8-2.463s-2.532-8.423-3.347-9.2-10.882-10.876-10.882-10.876c-.638.912,1.267,3.387,1.267,3.387l-7.3-5.488c-.388,1.455,1.371,2.774,1.371,2.774l-2.545-.805c.022,1.65,4.471,4.312,4.471,4.312l-3.4-.928c-.351,1.954,12.684,8.5,12.684,8.5l2.377,8.917s-4.156-3.415-6.363-.617c-.441.6,9.978,3.785,9.978,3.785l2.013,1.174Z" transform="translate(-452.014 -371.785)" fill="#ec9971"/><path d="M565.263,468.554c.756.671,1.534,1.307,2.327,1.919l-2.237,3.228c-1.662-1.464-2.667-2.377-2.667-2.377S563.69,467.216,565.263,468.554Z" transform="translate(-467.757 -389.897)" fill="#292560"/><path d="M576.237,486.733s.018,3.145,0,3.6" transform="translate(-473.614 -397.87)" fill="none" stroke="#292560" stroke-miterlimit="10" stroke-width="0.575"/></g><g transform="translate(291.034 44.011)"><g transform="translate(47.103 31.342)"><path d="M783.731,583.306a58.063,58.063,0,0,1-2.2,14.573l-6.952-1.132a120.74,120.74,0,0,0-.989-13.422C772.783,578.654,783.731,583.306,783.731,583.306Z" transform="translate(-751.853 -514.072)" fill="#b77344"/><path d="M815.978,532.492a3.85,3.85,0,0,0-2.474,2.882L816,541.726c.594-.014,1.589.717,2.524.623,3.421-.813,3.5-3.25,3.274-5.434A5,5,0,0,0,815.978,532.492Z" transform="translate(-769.121 -492.967)" fill="#a55e4e"/><path d="M738.966,543.155c2.451-.008,4.908,1.059,5.666,1.983,0,0,1.482,3.418.657,4.98a6.243,6.243,0,0,1-4.407,3.714c-2.532.562-4.98-2-5.406-5.1S735.449,543.168,738.966,543.155Z" transform="translate(-735.337 -497.609)" fill="#a55e4e"/><path d="M821.191,539.206a1.66,1.66,0,0,0-1.718-.739c-1.012.225-1.608,1.826-1.608,1.826a3.67,3.67,0,0,1,2.62,1.216c-.271-1.665-1.314-1.688-1.314-1.688s.236-.609.489-.609A4.627,4.627,0,0,1,821.191,539.206Z" transform="translate(-771.006 -495.566)" fill="#5a2a00"/><path d="M767.247,491.392c18.477-1.9,17.517,16.231,18.1,20.791s5.876,14.778,5.871,19.763c0,3.3-1.136,13.9-17.592,14.877-15.848.858-22.073-6.3-23.127-21.529C750,518.021,748.771,493.3,767.247,491.392Z" transform="translate(-741.793 -475.177)" fill="#ca8253"/><path d="M738.325,474.9c-1.2,1.1-3.877,6.313.035,9.4,2.033,1.008,2.149-1.983,2.393-.609s4.883,4.982,16.115-5.358-2.9-19.489-8.579-13.468C743.576,461.478,734.3,466.812,738.325,474.9Z" transform="translate(-735.758 -462.941)" fill="#382628"/><path d="M750.083,501.094c4.279-5.615,12.609-1.345,16.2-1.458s6.6-3.544,9.7-2.335,2.5,3.69,2.5,3.69-.5,1.5,1.211,3.2c-.386,3.8.02,5.385,1.674,6.336,1.546-.849.541-2.145-.324-3.737a4.265,4.265,0,0,0-.714-5.128c1.635-5.38-.87-7.071-3.371-8.461-.519-4.1-4.42-4.384-6.72-4.476-4.009-2.485-7-.974-7-.974-2.109-2.492-6.7-.275-9,1.133s-5.594,1.32-9.981,5.135-2.573,7.309-2.573,7.309-2.273,7.607,1.125,8.4c-.975,5.3,1.627,6,1.627,6s.5,4.112,3.506,3.541-.012-3.554-.012-3.554,1.3-.51,1.192-4.01S745.8,506.709,750.083,501.094Z" transform="translate(-737.759 -473.175)" fill="#422c2e"/><path d="M788.164,530.66c.957,0,.112,3.208,4.722,4.987,3.414,1.807,3.341,6.053.475,7.195C780.837,545.03,787.206,530.663,788.164,530.66Z" transform="translate(-757.103 -492.209)" fill="#a55e4e"/><path d="M742.114,473.839c2.193-2.108,8.089-2.629,6.908,2.275,3.2,1.188,3.313,3.688.021,5.9" transform="translate(-738.266 -466.988)" fill="none" stroke="#000" stroke-linecap="round" stroke-linejoin="round" stroke-width="1.745"/><path d="M762.529,471.115c4.892-2.418,9.226,7.166,2.032,8.655" transform="translate(-747.089 -466.306)" fill="none" stroke="#000" stroke-linecap="round" stroke-linejoin="round" stroke-width="1.745"/><path d="M763.311,492.7c3.755-.212,2.232,1.284,3.508,2.287s4.5-.016,4.813,3.783" transform="translate(-747.427 -475.795)" fill="none" stroke="#000" stroke-linecap="round" stroke-linejoin="round" stroke-width="1.745"/><path d="M780.737,490.239c2.7-.61,3.415.5,3.81,2.786.276,1.6,2.453,1.532.915,4.047" transform="translate(-754.959 -474.668)" fill="none" stroke="#000" stroke-linecap="round" stroke-linejoin="round" stroke-width="1.745"/><path d="M798.574,494.583s2.412,3.519.26,4.418" transform="translate(-762.668 -476.617)" fill="none" stroke="#000" stroke-linecap="round" stroke-linejoin="round" stroke-width="1.745"/><path d="M741.3,549.4c.211-.278.705-.465,2.317-.1,1.209.274,2.507,1.7,2.315,2.251-.047.137-1.7-.6-2.428-.351a13.227,13.227,0,0,0-2.379,1.907c-.463-1.268,1.771-2.589,2.54-2.69C743.029,549.519,741.146,549.649,741.3,549.4Z" transform="translate(-737.813 -500.178)" fill="#5a2a00"/><path d="M788.238,564.747a14.205,14.205,0,0,0,1.694-2.728l-17.115-.88a6.482,6.482,0,0,0-.037.76C775.275,562.98,783.873,566.431,788.238,564.747Z" transform="translate(-751.52 -505.383)" fill="#f0deca"/><path d="M788.238,565.326c-4.365,1.684-12.962-1.768-15.458-2.847,0,1.983.682,7.191,7.748,7.548,8.738.44,9.62-7.418,9.62-7.418l-.216-.01A14.207,14.207,0,0,1,788.238,565.326Z" transform="translate(-751.52 -505.961)" fill="#7b310d"/><g transform="translate(17.797 38.671)"><path d="M767.792,536.089a.546.546,0,0,1-.454-.242,3.643,3.643,0,0,1-.529-2.859,2.8,2.8,0,0,1,1.949-1.687,2.937,2.937,0,0,1,2.839.208,3.086,3.086,0,0,1,.916,2.477.548.548,0,0,1-1.093-.092,1.967,1.967,0,0,0-.506-1.526,2.092,2.092,0,0,0-1.815-.025,1.785,1.785,0,0,0-1.252,1,2.521,2.521,0,0,0,.4,1.9.549.549,0,0,1-.456.853Z" transform="translate(-766.681 -531.048)" fill="#5a2a00"/></g><g transform="translate(35.927 38.398)"><path d="M802.719,533.871a.549.549,0,0,1-.542-.47c-.1-.691-.382-1.831-1.15-1.728a1.814,1.814,0,0,0-1.317,1.209.555.555,0,0,1-.462.622.543.543,0,0,1-.621-.448,2.3,2.3,0,0,1,.99-1.888,2.167,2.167,0,0,1,2.149-.484c.793.311,1.3,1.172,1.5,2.559a.552.552,0,0,1-.543.628Z" transform="translate(-798.611 -530.568)" fill="#5a2a00"/></g><path d="M791.2,556.357c0,3.3-1.136,13.9-17.592,14.877-15.848.857-22.073-6.3-23.127-21.529,0,0-.513-2.5,1.129-2.517,1.324-.012,2.18,6.4,3.063,5.329,3.379-4.988,16.7-1.193,17.841-.91s1.337,2.87-.69,2.668-15.089-5.585-15.06,0c.03,6.676,8.557,13.177,13.6,12.485s4.232-3.361,4.893-3.368,1.811,2.188,1.811,2.188,6.353-.335,9.085-3.873c2.61-3.38,1.777-8.759.028-9.189-1.967-.484-6.033,2.163-7.929,1.758-.756-.161-1.5-2.038.058-2.31,2.1-.366,9.907-4,11.652-1.454C791,552.012,791.2,556.357,791.2,556.357Z" transform="translate(-741.85 -499.353)" fill="#422c2e"/></g><path d="M785.792,738.347l-.622,7.287,124.037,2.2v-6.644Z" transform="translate(-709.772 -550.63)" fill="#37301e"/><path d="M949.4,746.508c-5.971-1.158-12.632-2.534-13.555-2.238s-5.266,1.389-7.507.915c-.5,2.531-.036,5.57,1.359,5.864,2.086.525,4.31-.682,9.921.006a40.669,40.669,0,0,0,16.02-1.1C957.985,749.138,953.5,747.3,949.4,746.508Z" transform="translate(-771.565 -553.172)" fill="#6c6698"/><path d="M947.075,745.582c-.93-.906-3.82-.672-5.537,2.77" transform="translate(-777.355 -553.561)" fill="none" stroke="#f0eee4" stroke-linecap="round" stroke-miterlimit="10" stroke-width="2.46"/><path d="M954.489,746.917c-.55-1.249-3.5-1.655-6.011,1.96" transform="translate(-780.354 -553.948)" fill="none" stroke="#f0eee4" stroke-linecap="round" stroke-miterlimit="10" stroke-width="2.46"/><path d="M962.23,748.476c-1.343-.63-4.458-.991-6.448,2.624" transform="translate(-783.511 -554.833)" fill="none" stroke="#f0eee4" stroke-linecap="round" stroke-miterlimit="10" stroke-width="2.46"/><path d="M784.77,701.541c1.343-2.234,14.408-24.82,25.9-31.454s39.7,33.38,50.126,41.819c.193,4.326-7.159,3.6-7.159,3.6-16.385-16.553-33.972-41.682-42.644-37.651-7.43,3.1-21.964,34.231-22.689,35.594-2.337,3.321-27.361,2.438-30.072,2.055s-4.47-3.2-3.427-14.657Z" transform="translate(-696.516 -520.808)" fill="#37301e"/><path d="M755.208,714.7H780.3l4.764-.712s0,4.35-.046,6.845l-29.866.372A47.972,47.972,0,0,1,755.208,714.7Z" transform="translate(-696.76 -540.103)" fill="#6c6698"/><path d="M796.69,721.749H792.2l-.484-6.505h4.422Z" transform="translate(-712.601 -540.645)" fill="#37301e"/><path d="M771.213,722.342h-4.535l-.44-7.1h4.422Z" transform="translate(-701.59 -540.645)" fill="#37301e"/><path d="M784.445,717.662c.415.345.414,2.97,0,3.317s-6.563.451-6.633,0-.414-2.28,0-2.971S784.031,717.316,784.445,717.662Z" transform="translate(-706.505 -541.591)" fill="#f0deca"/><path d="M781.6,607.585c-4.043-1.86-13.344-4.945-13.344-4.945l-7.5,3.972-9.372-3.82s-15.483,6.668-16.613,11.357c-1.833,7.616,6,53.99,9.877,53.585l32.184-1.374C781.04,665.31,785.644,609.445,781.6,607.585Z" transform="translate(-687.872 -491.977)" fill="#6b8338"/><path d="M761.071,602.274l2.277,7.094,9.331-3.953-3.978-5.191Z" transform="translate(-699.357 -490.933)" fill="#8eaa5d"/><path d="M793.508,603.728l-3.375,6.886-8.617-4.763,4.385-4.616Z" transform="translate(-708.193 -491.37)" fill="#8eaa5d"/><line x2="0.154" y2="60.183" transform="translate(73.323 114.482)" fill="none" stroke="#8eaa5d" stroke-miterlimit="10" stroke-width="0.495"/><path d="M761.433,610.279l1.331,14.344,11.126-4.739,11.743,4.089.585-12.319-11.229,3.732-3.809.184Z" transform="translate(-699.513 -495.279)" fill="#eb9519"/><path d="M778.722,617.778l.181,7.661,5.381-.449-.862-7.34Z" transform="translate(-706.985 -498.464)" fill="#e97f1e"/><path d="M792.438,639.249l-.859,10.9,5.833,3.219,5.931-3.069,1.612-10.475Z" transform="translate(-712.542 -507.799)" fill="none" stroke="#8eaa5d" stroke-miterlimit="10" stroke-width="0.495"/><path d="M805.366,639.822l-12.516-.573-.318,2.715,12.394.71Z" transform="translate(-712.954 -507.799)" fill="#8eaa5d"/><path d="M844.969,453.4s-1.129-3.818-1.735-3.859-3.716-.244-4.868-1.141c-2.067-4.633-7.61-6.61-8.288-6.957s2.788-2.711,6.5-1.282c3.627,1.4,3.625,6.253,3.625,6.253l1.065-.046c2.7-6.706-15.267-29.583-14.6-29.588,10.108-.707,11.627,13.975,11.627,13.975l2.305-.341s-6.292-23.243-4.713-22.664c9.248.963,6.114,20.327,7.015,20.289s2.364-20.325,3.783-19.6c7.431,3.953-1.248,21.977-1.248,21.977h4.069s5.963-9.834,6.409-9.365,2.688,6.324-5.059,11.066c3.423,11.768-.828,14.986-1.423,15.652s.475,3.952.475,3.952Z" transform="translate(-727.7 -407.741)" fill="#ca8253"/><path d="M686.229,733.314c-8.02-2.534-9.335-3.885-10.492-3.75-3.569.416-16.92,3.581-16.92,3.581a2.61,2.61,0,0,0,2.93,1.358c-.293,1.371-9.367,3.523-9.367,3.523-.055,2.171,4.218.754,3.972,1.05-.6.722-3.675,2.018-3.675,2.018.021,1.074,5.21.944,7.393-1.179,0,0-3.577,2.375-2.779,2.859s10.5-.617,17.18-6.879c6.94,2.485,6.682.81,9.27,1.875,0,0-10.576-1.4-9.27,5.035,2.717-1.08,18.084-3.935,19.6-5.48.029-.031-3.247-4.944-5.044-7.934l-2.007-2.69a23.294,23.294,0,0,1-4.048,1.4Z" transform="translate(-652.38 -545.596)" fill="#ca8253"/><path d="M930.813,738.347l-5.968,4.495c.807.847,1.817,1.939,2.414,2.489s7.352.723,7.159-3.6A44.46,44.46,0,0,1,930.813,738.347Z" transform="translate(-770.14 -550.63)" fill="#988e84"/><path d="M997.952,743.231l-7.35-.17c.015,1.561.021,4.453-.1,6.682l7.451.133Z" transform="translate(-798.517 -552.667)" fill="#988e84"/><path d="M1001.71,707.088c-1.091,5.984-1.828,15.839-2.795,17.1,1.125,1.343,2.5,5.866,2.045,8.113,2.773,0,3.575.418,4.65-1.029,1.318-1.782,1.024-7.544.968-13.5-.068-7.3-1.094-12.838-2.185-14.571C1003.129,701.258,1002.46,702.978,1001.71,707.088Z" transform="translate(-802.153 -535.095)" fill="#6c6698"/><path d="M999.6,734.75c-.895.938-.63,3.828,2.832,5.5" transform="translate(-802.262 -549.075)" fill="none" stroke="#f0eee4" stroke-linecap="round" stroke-miterlimit="10" stroke-width="2.46"/><path d="M1000.891,724.956c-1.242.564-1.616,3.517,2.027,5.989" transform="translate(-802.63 -544.842)" fill="none" stroke="#f0eee4" stroke-linecap="round" stroke-miterlimit="10" stroke-width="2.46"/><path d="M1002.36,716.871c-.615,1.349-.941,4.469,2.7,6.419" transform="translate(-803.477 -541.348)" fill="none" stroke="#f0eee4" stroke-linecap="round" stroke-miterlimit="10" stroke-width="2.46"/><path d="M691.361,651.171c.2-18.463,30.71-32.231,30.71-32.231s6.73-10.005,2.037-9.942c-4.127.056-36.558,19.727-38.295,40.725.337,14.7,10.528,25.44,12.032,28.017s5.6.727,5.6.727S692.1,664.661,691.361,651.171Z" transform="translate(-666.83 -494.725)" fill="#6b8338"/><path d="M705.964,727.88c1.5,2.577,5.6.727,5.6.727s-1.1-1.343-2.644-3.6a9.378,9.378,0,0,1-4.322.952C705.231,726.808,705.717,727.457,705.964,727.88Z" transform="translate(-674.948 -544.865)" fill="#8eaa5d"/><path d="M826.313,554.41c15-6.334,18.55-18.866,17.841-38.022-.73-19.678-9.165-36.376-9.165-36.376a40.875,40.875,0,0,1,6.2-1.774c1.173-.107,24.88,67.878-13.009,83.764-4.255,2.14-14.972,2.22-16.312.344l-4.3-10.767C814.745,554.631,823.489,555.634,826.313,554.41Z" transform="translate(-719.454 -438.21)" fill="#6b8338"/><path d="M862.058,478.238a40.874,40.874,0,0,0-6.2,1.774s1.167,2.311,2.669,6.221a12.671,12.671,0,0,0,5.7-2.625C863.127,480.213,862.259,478.22,862.058,478.238Z" transform="translate(-740.324 -438.21)" fill="#8eaa5d"/><path d="M808.912,739.077c-1.247,2.514-2.057,4.216-2.214,4.512-.865,1.23-4.839,1.883-9.638,2.2" transform="translate(-714.911 -550.945)" fill="none" stroke="#988e84" stroke-miterlimit="10" stroke-width="1"/><path d="M800.477,727.578h2.568l1.6-1.532" transform="translate(-716.388 -545.313)" fill="none" stroke="#988e84" stroke-miterlimit="10" stroke-width="0.5"/><line x2="2.566" y2="2.739" transform="translate(151.571 188.905)" fill="none" stroke="#988e84" stroke-miterlimit="10" stroke-width="0.5"/><path d="M736.12,628.725a6.912,6.912,0,0,0-1.292,3.162l1.719-.883" transform="translate(-688.014 -503.251)" fill="none" stroke="#8eaa5d" stroke-miterlimit="10" stroke-width="0.495"/><path d="M815.306,628.036a2.2,2.2,0,0,1,2.388-.051l-1.194.886" transform="translate(-722.797 -502.781)" fill="none" stroke="#8eaa5d" stroke-miterlimit="10" stroke-width="0.495"/></g><g transform="translate(0.43 159.62)"><rect width="122" height="82" rx="6" transform="translate(-1)" fill="#fff"/><path d="M6,0H116a6,6,0,0,1,6,6V23a0,0,0,0,1,0,0H0a0,0,0,0,1,0,0V6A6,6,0,0,1,6,0Z" transform="translate(-1)" fill="#c3c4c7"/><circle cx="4" cy="4" r="4" transform="translate(28.57 7.602)" fill="#689f38"/><circle cx="4" cy="4" r="4" transform="translate(17.57 7.602)" fill="#ff9800"/><circle cx="4" cy="4" r="4" transform="translate(6.57 7.602)" fill="#ee4957"/><path d="M8,0H72a8,8,0,0,1,8,8V22a8,8,0,0,1-8,8H8a8,8,0,0,1-8-8V8A8,8,0,0,1,8,0Z" transform="translate(19.57 37)" fill="#9c27b0"/><path d="M8,0H72a8,8,0,0,1,8,8V22a8,8,0,0,1-8,8H8a8,8,0,0,1-8-8V8A8,8,0,0,1,8,0Z" transform="translate(19.57 37)" fill="#9c27b0"/><rect width="6" height="6" transform="translate(10.57 28)" fill="#9a9da2"/><rect width="6" height="6" transform="translate(10.57 28)" fill="#9a9da2"/><rect width="6" height="6" transform="translate(102.57 28)" fill="#9a9da2"/><rect width="6" height="6" transform="translate(102.57 28)" fill="#9a9da2"/><line x2="80" transform="translate(19.57 31)" stroke-dasharray="1 5" stroke="#9a9da2" stroke-linecap="round" stroke-width="2" fill="none"/><line x2="80" transform="translate(19.57 31)" stroke-dasharray="1 5" stroke="#9a9da2" stroke-linecap="round" stroke-width="2" fill="none"/><rect width="6" height="6" transform="translate(10.57 70)" fill="#9a9da2"/><rect width="6" height="6" transform="translate(10.57 70)" fill="#9a9da2"/><rect width="6" height="6" transform="translate(102.57 70)" fill="#9a9da2"/><rect width="6" height="6" transform="translate(102.57 70)" fill="#9a9da2"/><line x2="80" transform="translate(19.57 73)" stroke-dasharray="1 5" stroke="#9a9da2" stroke-linecap="round" stroke-width="2" fill="none"/><line x2="80" transform="translate(19.57 73)" stroke-dasharray="1 5" stroke="#9a9da2" stroke-linecap="round" stroke-width="2" fill="none"/><line y2="32" transform="translate(13.57 37)" stroke-dasharray="1 5" stroke="#9a9da2" stroke-linecap="round" stroke-width="2" fill="none"/><line y2="32" transform="translate(13.57 37)" stroke-dasharray="1 5" stroke="#9a9da2" stroke-linecap="round" stroke-width="2" fill="none"/><line y2="32" transform="translate(105.57 37)" stroke-dasharray="1 5" stroke="#9a9da2" stroke-linecap="round" stroke-width="2" fill="none"/><line y2="32" transform="translate(105.57 37)" stroke-dasharray="1 5" stroke="#9a9da2" stroke-linecap="round" stroke-width="2" fill="none"/><g transform="translate(41.57 47)" fill="none" stroke="#fff" stroke-width="2"><rect width="10" height="10" stroke="none"/><rect x="1" y="1" width="8" height="8" fill="none"/></g><g transform="translate(41.57 47)" fill="none" stroke="#fff" stroke-width="2"><rect width="10" height="10" stroke="none"/><rect x="1" y="1" width="8" height="8" fill="none"/></g><g transform="translate(67.57 47)" fill="none"><path d="M5,0l6,10H-1Z" stroke="none"/><path d="M 5 3.887306690216064 L 2.532383918762207 8 L 7.467616081237793 8 L 5 3.887306690216064 M 5 0 L 11 10 L -1 10 L 5 0 Z" stroke="none" fill="#fff"/></g><g transform="translate(67.57 47)" fill="none"><path d="M5,0l6,10H-1Z" stroke="none"/><path d="M 5 3.887306690216064 L 2.532383918762207 8 L 7.467616081237793 8 L 5 3.887306690216064 M 5 0 L 11 10 L -1 10 L 5 0 Z" stroke="none" fill="#fff"/></g><g transform="translate(54.57 47)" fill="none" stroke="#fff" stroke-width="2"><rect width="10" height="10" rx="5" stroke="none"/><rect x="1" y="1" width="8" height="8" rx="4" fill="none"/></g><g transform="translate(54.57 47)" fill="none" stroke="#fff" stroke-width="2"><rect width="10" height="10" rx="5" stroke="none"/><rect x="1" y="1" width="8" height="8" rx="4" fill="none"/></g></g><g transform="translate(0 10)"><g transform="translate(558.42 8.331)"><g transform="translate(0 123.195)"><path d="M1201.861,571.1c-1.535,24.971,30.85,71.159,58.1,84.343a8.474,8.474,0,0,0,1.475-3.08c-31.052-20.558-51.837-62.746-50.1-65.128Z" transform="translate(-1157.23 -565.861)" fill="#09f"/><path d="M1220.7,613.085c-.805,2.175-1.779,4.744-2.913,7.549,1.213,2.319,2.75,5.051,4.149,7.373q1.576-3.338,3.068-6.647C1223.353,618.432,1221.758,615.351,1220.7,613.085Z" transform="translate(-1164.136 -584.006)" fill="#305abc"/><path d="M1187.326,583.429c8.645,1.156,7.273-.126,7.273-.126s-17.692,55.974-43.709,72.285c-.035,2.2,4.235,4.478,4.235,4.478,17.949-10.906,36.3-49.427,47.8-77.26,7.866-4.84,11.922-10.986,10.442-20.935l-33.512,5.242S1178.681,582.273,1187.326,583.429Z" transform="translate(-1135.223 -561.871)" fill="#09f"/><path d="M1124.521,712.237a40.28,40.28,0,0,1,14.442,8.828c-.225,1.347,3.046,2.64,4.237,3.971a13.569,13.569,0,0,1-4.92,5.635c-9.734-5.635-14.741-16.636-14.959-17.69S1124.521,712.237,1124.521,712.237Z" transform="translate(-1123.298 -626.842)" fill="#fc9f2f"/><g transform="translate(94.685 86.505)"><path d="M1293.681,729.086c-.715,1.7-4.607,3.654-3.391,4.622.608.768,5.566-1.049,9.29-5.777,3.357-4.264,5.587-11.431,4.938-11.776a22.132,22.132,0,0,1-4.938-1.935s-.655,2.641-1.991,2.765C1298.864,718.506,1294.292,727.633,1293.681,729.086Z" transform="translate(-1290.056 -714.222)" fill="#fc9f2f"/><path d="M1300.705,726.177c-.587-.548-.564-2.3,3.943-1.58" transform="translate(-1294.544 -718.632)" fill="none" stroke="#f0eee4" stroke-linecap="round" stroke-miterlimit="10" stroke-width="1.918"/><path d="M1298.539,731.744c-.587-.548-.564-2.3,3.942-1.58" transform="translate(-1293.608 -721.038)" fill="none" stroke="#f0eee4" stroke-linecap="round" stroke-miterlimit="10" stroke-width="1.918"/><path d="M1297.037,737.3c-.587-.548-.564-2.3,3.943-1.581" transform="translate(-1292.959 -723.44)" fill="none" stroke="#f0eee4" stroke-linecap="round" stroke-miterlimit="10" stroke-width="1.918"/></g><path d="M1148.569,725.823c.712-.371,2.36.238.17,4.244" transform="translate(-1134.22 -632.691)" fill="none" stroke="#f0eee4" stroke-linecap="round" stroke-miterlimit="10" stroke-width="1.918"/><path d="M1143.443,722.3c.713-.37,2.359.239.17,4.244" transform="translate(-1132.005 -631.167)" fill="none" stroke="#f0eee4" stroke-linecap="round" stroke-miterlimit="10" stroke-width="1.918"/><path d="M1138.7,719.021c.713-.37,2.359.238.171,4.244" transform="translate(-1129.957 -629.752)" fill="none" stroke="#f0eee4" stroke-linecap="round" stroke-miterlimit="10" stroke-width="1.918"/><path d="M1156.208,659.018c21.648-14.519,42.782-64.959,47.656-77.965,3.06-1.886,10.285-8.407,8.8-18.356" transform="translate(-1137.522 -562.228)" fill="none" stroke="#fff" stroke-linecap="round" stroke-miterlimit="10" stroke-width="1.421"/></g><path d="M1204.217,517.351c-3.452,13.331-31.814,9.513-31.814,9.513l.005,3.934s28.756,4.519,37.142-9.366c4.663-9.267-4.869-14.863-4.869-14.863S1203.857,510.021,1204.217,517.351Z" transform="translate(-1144.521 -414.774)" fill="#eebd9b"/><path d="M1226.467,462.2s-4.935-.727-6.107,5.848c.236.236-.451,7.008-2.642,14.27l5.544,2.188a11.986,11.986,0,0,0,.527-3.246C1224.8,477.734,1226.467,462.2,1226.467,462.2Z" transform="translate(-1164.107 -395.59)" fill="#49687d"/><path d="M1247.045,443.463s1,6.878-1.923,12.115l9.474,1.526s-2.251-9.5-1.677-14.25S1247.045,443.463,1247.045,443.463Z" transform="translate(-1175.951 -386.388)" fill="#eeaf86"/><path d="M1217.3,404.744a3.475,3.475,0,0,1,2.422,1.109l-1.16,7.139c-.574.105-1.184.244-1.825.426-3.073,1.247-3.823-1.578-4.072-3.573A4.67,4.67,0,0,1,1217.3,404.744Z" transform="translate(-1161.912 -370.764)" fill="#e99372"/><path d="M1292.268,402.395a9.066,9.066,0,0,0-5.5,2.1l-1.335,5.727a36.3,36.3,0,0,1,4.926.27,4.941,4.941,0,0,0,5.477-3.879C1296.26,404.262,1295.843,402.395,1292.268,402.395Z" transform="translate(-1193.374 -369.75)" fill="#e99372"/><path d="M1216.681,410.91a1.684,1.684,0,0,1,1.743-.757c1.03.225,1.641,1.849,1.641,1.849a3.734,3.734,0,0,0-2.658,1.245c.27-1.693,1.329-1.72,1.329-1.72s-.241-.617-.5-.617A4.716,4.716,0,0,0,1216.681,410.91Z" transform="translate(-1163.658 -373.086)" fill="#aa6e4e"/><path d="M1292.415,406.664c1.214-.169,3.025-.806,3.529,1.06-1.413-.547-3.832-.385-4.236.488,1.009-.186,1.917-.244,2.017,2.133a12.722,12.722,0,0,1-2.168-1.827c-.454-.14-.454-.14-1.241.8C1290.1,408.53,1291.2,406.834,1292.415,406.664Z" transform="translate(-1195.472 -371.491)" fill="#aa6e4e"/><path d="M1244.256,347.828c-17.041-1.868-19.842,9.339-21.01,13.774s-.177,11.472-.7,16.108-1.99,7.408-1.635,10.739,1.4,15.642,16.577,16.576c13.307.7,18.4-7.05,21.478-19.377C1264.8,362.3,1261.3,349.7,1244.256,347.828Z" transform="translate(-1165.463 -346.076)" fill="#eebd9b"/><path d="M1241.219,374.271c-11.228.478-16.3,3.462-18.57,6.263a80.554,80.554,0,0,1-.1,8.678c-.523,4.636-1.99,7.408-1.635,10.739s1.4,15.642,16.577,16.576c13.307.7,18.4-7.05,21.478-19.377a82.4,82.4,0,0,0,2.553-15.377C1258.175,377.718,1252.114,373.808,1241.219,374.271Z" transform="translate(-1165.463 -357.579)" fill="#eebd9b"/><path d="M1236.991,371.487s3.218,8.024,10.061,8.808.409-6.061.409-6.061,3.435,3.459,6.985,2.361c2.9-.9-1.035-4.622-1.035-4.622s4.943,2.925,4.663.272a10.039,10.039,0,0,0,3.34,1.467c2.246,8.377,6.434,9.713,6.434,9.713s1.369-6.7,0-11.938c-2.116-8.088-21.754-7.474-21.754-7.474Z" transform="translate(-1172.436 -353.157)" fill="#733202"/><path d="M1242.582,362.769c10.895-.464,16.955,3.447,20.3,7.5.714-13.556-4.442-21.038-17.262-22.443-17.041-1.868-19.842,9.339-21.01,13.774a30.054,30.054,0,0,0-.6,7.43C1226.286,366.231,1231.354,363.247,1242.582,362.769Z" transform="translate(-1166.826 -346.076)" fill="#f04623"/><path d="M1203.75,350.847c6.538-8.4,29.409-10.731,40.874,12.3-27.807-4.818-30.274,5.953-30.274,5.953C1207.479,371.4,1197.214,359.252,1203.75,350.847Z" transform="translate(-1157.166 -344.901)" fill="#c73a1d"/><path d="M1243,395.295c-.914,0-1.329,2.077-5.385,3.845-3.253,1.737-3.171,5.793-.43,6.873C1247.4,408.838,1243.918,395.295,1243,395.295Z" transform="translate(-1171.642 -366.682)" fill="#e97b6a"/><path d="M1267.11,390.616c-1.131-.367-1.732,1.278-1.513,2.517s.026,2.174,1.34,2.394S1268.242,390.984,1267.11,390.616Z" transform="translate(-1184.781 -364.637)" fill="#a26a4a"/><path d="M1230.983,393.447c-.911-.3-1.4,1.029-1.219,2.027s.428,1.934,1.079,1.928C1231.916,397.392,1231.893,393.743,1230.983,393.447Z" transform="translate(-1169.297 -365.865)" fill="#a26a4a"/><path d="M1233.126,422.114l19.607-6.481c.61,1.828-1.466,6.481-6.866,8.641S1233.928,423.775,1233.126,422.114Z" transform="translate(-1170.766 -375.472)" fill="#f2dccc"/><path d="M1217.281,462.01c-4.3.486-3.211,9.077-4.311,14.627s-8.63,22.28-12.977,47.323l34.724-5.243s5.067-31.172,9.617-39.048c0,0,1.879-17.719-2.493-17.739l-7.792-.4c-.123,1.9-5.9,4.153-7.375,0A85.2,85.2,0,0,0,1217.281,462.01Z" transform="translate(-1156.446 -395.307)" fill="#49687d"/><g transform="translate(58.49 80.109)"><path d="M1234.939,508.728c-1.888-2.452-1.874-2.168-2.91.468s2.446,5.326,2.446,5.326S1236.826,511.18,1234.939,508.728Z" transform="translate(-1228.698 -495.088)" fill="none" stroke="#3c5766" stroke-miterlimit="10" stroke-width="0.71"/><path d="M1239.257,502.678a3.03,3.03,0,0,1,1.473,2.17l.254,1.553a.4.4,0,0,1-.7.319c-.466-.562-1.194-1.155-1.484-1.145Z" transform="translate(-1231.707 -493.202)" fill="#3c5766" stroke="#49687d" stroke-miterlimit="10" stroke-width="0.71"/><path d="M1227.223,504.717l1.392,2.54c-.236.079-.6.6-1.135,1.636a.4.4,0,0,1-.416.21.39.39,0,0,1-.329-.323l-.254-1.554A3.1,3.1,0,0,1,1227.223,504.717Z" transform="translate(-1226.368 -494.083)" fill="#3c5766" stroke="#49687d" stroke-miterlimit="10" stroke-width="0.71"/><path d="M1229.563,507.784c.457.937.537,1.027.595,1.185a.387.387,0,0,0,.433.237l3.918-.665a.4.4,0,0,0,.335-.367c.005-.17.049-.25.2-1.321l-.9-.647-3.919.665Z" transform="translate(-1227.716 -494.726)" fill="#3c5766" stroke="#49687d" stroke-miterlimit="10" stroke-width="0.71"/><path d="M1229.563,508.04c.457.937.537,1.027.595,1.185a.387.387,0,0,0,.433.237l1.959-.332-.38-2.331-1.936.328Z" transform="translate(-1227.716 -494.983)" fill="#3c5766" stroke="#49687d" stroke-miterlimit="10" stroke-width="0.71"/><path d="M1228.157,500.975l5.485-.931c.571-4.1.017-7.3-1.661-9.591l-2.658.443-2.6.442C1225.865,494.048,1226.344,497.275,1228.157,500.975Z" transform="translate(-1226.31 -487.918)" fill="#3c5766" stroke="#49687d" stroke-miterlimit="10" stroke-width="0.71"/><path d="M1230.4,494.333l.022-.009a1.967,1.967,0,1,1,1.547,3.617l-.022.01a1.968,1.968,0,0,1-1.547-3.619Z" transform="translate(-1227.562 -489.52)" fill="#3c5766" stroke="#49687d" stroke-miterlimit="10" stroke-width="0.71"/><path d="M1227.035,489.408a4.081,4.081,0,0,0,2.75.477l.024,0a4.11,4.11,0,0,0,2.485-1.357,7.144,7.144,0,0,0-.506-.632,8.925,8.925,0,0,0-2.349-1.855.36.36,0,0,0-.286-.031.333.333,0,0,0-.207.115,8.93,8.93,0,0,0-1.625,2.528C1227.217,488.9,1227.121,489.147,1227.035,489.408Z" transform="translate(-1226.623 -485.988)" fill="#3c5766" stroke="#49687d" stroke-miterlimit="10" stroke-width="0.71"/><path d="M1232.758,503.95a.469.469,0,0,1,.556-.095c1.19.828,1.153,1.435,1.171,1.551.55,3.366-.129,4.351-.2,4.452a.423.423,0,0,1-.257.154.027.027,0,0,1-.025,0,.336.336,0,0,1-.233-.048c-.177-.1-1.085-.775-1.636-4.155A2.216,2.216,0,0,1,1232.758,503.95Z" transform="translate(-1228.814 -493.685)" fill="#3c5766" stroke="#49687d" stroke-miterlimit="10" stroke-width="0.71"/><g transform="translate(-1227.532 -489.464)" fill="#3c5766" stroke-miterlimit="10"><path d="M 1231.151245117188 497.9842529296875 C 1231.151245117188 497.9842529296875 1231.151123046875 497.9842529296875 1231.151123046875 497.9842529296875 C 1230.747802734375 497.9842224121094 1230.361083984375 497.8615112304688 1230.032836914063 497.62939453125 C 1229.614013671875 497.3332214355469 1229.3369140625 496.8917236328125 1229.252685546875 496.38623046875 C 1229.167358398438 495.8751220703125 1229.288696289063 495.3602294921875 1229.59423828125 494.9364013671875 C 1229.962524414063 494.4251708984375 1230.55908203125 494.1199645996094 1231.190063476563 494.1199645996094 C 1231.59423828125 494.1199645996094 1231.981567382813 494.2432861328125 1232.310424804688 494.4765319824219 C 1232.729614257813 494.7722778320313 1233.006958007813 495.2131042480469 1233.091430664063 495.7179565429688 C 1233.176879882813 496.2287902832031 1233.055541992188 496.7437133789063 1232.749633789063 497.1679077148438 C 1232.38037109375 497.6790466308594 1231.78271484375 497.9842529296875 1231.151245117188 497.9842529296875 Z" stroke="none"/><path d="M 1231.18994140625 494.0311889648438 L 1231.18994140625 494.2087707519531 C 1230.587524414063 494.2087707519531 1230.017944335938 494.5001831054688 1229.666259765625 494.9883117675781 C 1229.374633789063 495.3927917480469 1229.258911132813 495.8840637207031 1229.340209960938 496.3716430664063 C 1229.420654296875 496.8535766601563 1229.684814453125 497.2745056152344 1230.084106445313 497.5569152832031 C 1230.397338867188 497.7783813476563 1230.766235351563 497.8954467773438 1231.151123046875 497.8954467773438 C 1231.754272460938 497.8954467773438 1232.324951171875 497.60400390625 1232.677612304688 497.115966796875 C 1232.969482421875 496.711181640625 1233.085327148438 496.2199096679688 1233.003784179688 495.7326354980469 C 1232.923217773438 495.2513122558594 1232.658935546875 494.8310546875 1232.259033203125 494.5489501953125 C 1231.9453125 494.3264465332031 1231.57568359375 494.2088012695313 1231.190063476563 494.2087707519531 L 1231.18994140625 494.0311889648438 M 1231.190063476563 494.0311889648438 C 1231.596923828125 494.0312194824219 1232.0068359375 494.1522827148438 1232.36181640625 494.4041137695313 C 1233.273681640625 495.0474243164063 1233.479248046875 496.3079223632813 1232.821655273438 497.2198486328125 C 1232.419799804688 497.7759704589844 1231.7890625 498.0730590820313 1231.151123046875 498.0730590820313 C 1230.744995117188 498.0730590820313 1230.336059570313 497.9525756835938 1229.981567382813 497.701904296875 C 1229.0703125 497.0574340820313 1228.865234375 495.7957763671875 1229.522216796875 494.8844604492188 C 1229.923217773438 494.3279724121094 1230.552978515625 494.0311279296875 1231.190063476563 494.0311889648438 Z" stroke="none" fill="#49687d"/></g></g><g transform="translate(66.314 66.647)"><path d="M1263.964,500.548c2.619,5.279,5.761,15.149-1,18.055-2.7,1.16-22.526-12.078-22.526-12.078l-.347,3.847c1.337,1.06,20.177,17.575,27.129,11.764,8.754-7.318.3-23.79.3-23.79Z" transform="translate(-1240.089 -477.867)" fill="#eebd9b"/><path d="M1274.129,462.279l1.648,18.876a20.626,20.626,0,0,1,2.9,4.3l6.116-3.789C1284.6,480.81,1281.082,462.972,1274.129,462.279Z" transform="translate(-1254.801 -462.279)" fill="#49687d"/></g><path d="M1273.89,489.647c-.7-.883-1.019-1.557-2.067-1.3,1.159.478,3.018,3.043,2.957,4.052A3.765,3.765,0,0,0,1273.89,489.647Z" transform="translate(-1187.491 -406.875)" fill="#3c5766"/></g><g transform="translate(528.43 60.018)"><g clip-path="url(#f)"><rect width="122.677" height="11.457" rx="5.729" transform="translate(-4 55)" fill="url(#g)"/></g></g><path d="M1156.68,543.636c-5.261,1.97-7.616,3.239-8.393,3.19-2.394-.152-11.412-1.8-11.412-1.8.509-1.263,2.493-.517,2.493-.517-.243-.9-6.958-2.514-6.958-2.514-.467-1.052,2.787-.65,2.614-.839a11.07,11.07,0,0,0-2.522-1.218c-.024-.718,3.442-.812,4.972.528,0,0-2.469-1.459-1.953-1.811s6.916.6,11.591,4.541c4.542-1.9,5.9-2.74,7.593-3.541,0,0-4.708-1.956-2.855-4.785,1.85.625,6.708,6.242,7.771,7.22.083.077,2.847,1.476,2.154,1.549Z" transform="translate(-568.796 -418.677)" fill="#eebd9b"/><g transform="translate(529.43 61.018)"><rect width="88.677" height="59.458" rx="6" transform="translate(-1)" fill="#fff"/><rect width="73" height="19" rx="3" transform="translate(6.57 31.602)" fill="#d6d8dc"/><path d="M1096.286,464.71a6,6,0,1,1-6-6A6,6,0,0,1,1096.286,464.71Z" transform="translate(-1077.716 -446.109)" fill="#ee4957"/><rect width="55" height="8" rx="3" transform="translate(24.57 14.602)" fill="#ebedf2"/><g transform="translate(63.57 5.602)"><circle cx="2" cy="2" r="2" transform="translate(12)" fill="#9a9da2"/><circle cx="2" cy="2" r="2" transform="translate(6)" fill="#9a9da2"/><circle cx="2" cy="2" r="2" fill="#9a9da2"/></g></g><path d="M1225.406,513.216c.7-1.009,1.094-2.15.753-2.4-.8-.592-14.545-9.387-15.8-9.307s-8.195.966-11.6.807c2.5,4.23,8.645.108,8.622,1.114-1.8,1.746-10.779,1.483-10.718,2.144,5.34,4.161,12.569-1.942,12.669-.987-5.737,4.119-12.769,3.229-12.437,3.86,2.971,4.02,13.251-1.727,13.251-1.727s-2.278,2.954-10.281,5.747c-.379.132,5.813,2.931,11.476-4.1,6.308,3.624,8.883,3.125,9.465,3.013C1220.806,511.381,1224.7,514.226,1225.406,513.216Z" transform="translate(-596.586 -404.255)" fill="#eebd9b"/></g><g clip-path="url(#h)"><ellipse cx="28.5" cy="8.5" rx="28.5" ry="8.5" transform="translate(71 153.62)" opacity="0.5" fill="url(#i)"/></g><g transform="translate(9.731 14.62)"><g transform="translate(86.373 34.08)"><path d="M384.929,453.262l2.034-2.67-7.939-7.876c4.463-2.078,7.618,3.633,7.618,3.633l-.769-30.559C389.1,416.4,387.8,433.1,387.8,433.1l.617.231,4.77-18.245c2.54,3.009-2.077,17.553-2.077,17.553l6.925-12.259c1,4.332-5.232,14.106-5.232,14.106l10.465-4.387c-1.23,3.617-9.465,6-9.465,6,1.065,9.313-1.145,13.658-3,16.312l-2.1,3.148Z" transform="translate(-339.305 -415.084)" fill="#fdc6a8"/><path d="M392.287,481.739c.9-1.326-2.508-3.854-3.322-2.736-1.126,1.547-3.736,5.354-3.736,5.354l3.105,2.821Z" transform="translate(-341.987 -442.59)" fill="#e87e33"/><path d="M310.6,478.47c1.511.229,8,9.286,13.654,16.973,4.808,6.542,9.006,11.915,9.006,11.915s8.035-10.905,9.85-13.982,6.21-11.6,9.529-9.884c2,1.031,3.3,1.971,3.41,3.572.211,3.066-6.622,12.273-13.8,19.826-4.421,4.654-6.843,9.307-9.05,9.174-5.725-.345-23.493-24.977-23.493-24.977S307.8,478.047,310.6,478.47Z" transform="translate(-309.072 -442.475)" fill="#f79f4e"/><path d="M349.79,530.971s.077-1.272.516-1.615" transform="translate(-326.67 -464.473)" fill="none" stroke="#e87e33" stroke-miterlimit="10" stroke-width="0.566"/><path d="M348.227,530.582s.367-1.5,1.238-1.744" transform="translate(-325.995 -464.249)" fill="none" stroke="#e87e33" stroke-miterlimit="10" stroke-width="0.566"/></g><path d="M377.781,679.115c.354,3.445-2.734,5.051,3.95,12.282l.684-.433s-1.611-3.678-1.112-5.393c-.06-.926,1.772,3.166,3.535,3.671s7.866,1.755,8.607.029c.308-.715-3.719-1.76-6.519-4.268a12.674,12.674,0,0,1-3.761-5.72c-.053-.572-.026-23.308-.935-23.409-.424-.051-5.556.027-5.957-.017C375.4,655.757,377.781,679.115,377.781,679.115Z" transform="translate(-251.66 -485.066)" fill="#2d2c29"/><path d="M376.934,663.176s2.026,2.007,5.269-.048" transform="translate(-252.029 -488.21)" fill="none" stroke="#42413b" stroke-miterlimit="10" stroke-width="0.699"/><path d="M377.225,665.565s2.026,2.006,5.269-.048" transform="translate(-252.155 -489.242)" fill="none" stroke="#42413b" stroke-miterlimit="10" stroke-width="1.399"/><path d="M300.472,545.418s1.273,4.011,2.147,5.934a54.175,54.175,0,0,1,4.942,17.265c.225,2.025,21.56-1.532,25.4,3.68,1.228,1.668,1.574,6.458,3.033,11.1,3.1,9.86,7.033,22.431,3.081,26.719-1.183,1.084-5.911,1.9-7.192.815-8.571-9.655-4.709-30.03-7.748-29.1-36.092,11.76-50.352,2.6-50.352-6.574,0-17.389,7.067-23.349,7.067-23.349Z" transform="translate(-207.447 -437.335)" fill="#72320f"/><path d="M312.027,589.89c.7.206,5.754-2.874,5.754-2.874" transform="translate(-223.976 -455.314)" fill="none" stroke="#571c07" stroke-miterlimit="10" stroke-width="1.131"/><path d="M317.827,587.564s-20.26,2.883-21.878,3.239-11.73-2.388-11.73-2.388" transform="translate(-211.958 -455.551)" fill="none" stroke="#571c07" stroke-miterlimit="10" stroke-width="1.131"/><path d="M315.636,484.984c.141,3.021-1.468,31.652,1.534,40.12,0,0,9.532,2.92,9.532,1.3-.016-2.187-3.9-9.828-5.205-22.7,3.192-6.46-1.161-12.792-3.913-16.069C316.472,486.31,315.621,484.678,315.636,484.984Z" transform="translate(-225.404 -411.199)" fill="#e87e33"/><path d="M305.56,520.713h-.018c-.87-2.308-4.258-11.551-4.353-15.944-.263-12.272-.153-24.452-2.129-27.233-2.4-3.381-17.069-4.854-18.087-1.95-1,2.852-1.09,37.558,1.912,46.026h0c-1.345,2.1-2.9,4.988-2.9,4.988s20.47,2.617,27.862-.427Z" transform="translate(-210.126 -406.483)" fill="#b1886a"/><path d="M284.677,498.742c2.815,7.153,11.432,3.186,14.121,3.458s7.5,1.031,8.841-2.271c3.432-8.194-6.937-16.782-7.6-19.4-.577-2.279-2.264,12.605-9.541,9.242C286.476,487.91,283.336,495.332,284.677,498.742Z" transform="translate(-212.02 -409.185)" fill="none" stroke="#a07a60" stroke-miterlimit="10" stroke-width="1.131"/><path d="M284.916,498.924c2.815,7.153,11.432,3.186,14.121,3.458s7.5,1.031,8.841-2.271c3.432-8.194-6.937-16.782-7.6-19.4" transform="translate(-212.259 -409.367)" fill="#b1886a"/><path d="M281.251,475.476c-1,2.852-1.09,37.558,1.912,46.026,0,0,8.889,2.688,9.533,1.3s-2.784-10.064-4.511-45.084C288.83,473.452,282.27,472.572,281.251,475.476Z" transform="translate(-210.404 -406.374)" fill="#f79f4e"/><path d="M284.916,513.357c1.325,3.367,3.937,4.27,6.61,4.31" transform="translate(-212.259 -423.478)" fill="none" stroke="#e87e33" stroke-miterlimit="10" stroke-width="0.566"/><path d="M286.621,548.032a12.532,12.532,0,0,1-1.213-1.213c-.317-.422,4.3-5.748,4.838-5.907s1.121,1.108,1.121,1.108" transform="translate(-212.465 -435.382)" fill="none" stroke="#e87e33" stroke-miterlimit="10" stroke-width="0.566"/><path d="M410.857,663.878c1.594,2.744,1.766,8.047,3.423,9.307,1.337,1.015,5.747,3.185,8.144,4.54l.84-.7s-3.915-4.151-3.625-4.291,4.717,1.686,6.522,1.371,6.258-2.175,6.188-3.537c-.04-.777-4.478-.626-8.836-2.291-2.948-1.125-4.671-1.986-5.328-2.87-.178.063-12.175-21.428-12.961-21.271-1.23.245-5.352,2.461-6.53,2.674C397.856,646.96,410.857,663.878,410.857,663.878Z" transform="translate(-261.418 -480)" fill="#2d2c29"/><path d="M404.395,653.321a13.744,13.744,0,0,0,4.6-2.75" transform="translate(-263.898 -482.782)" fill="none" stroke="#42413b" stroke-miterlimit="10" stroke-width="0.699"/><path d="M403.892,650.907s1.778-.346,4.6-2.749" transform="translate(-263.68 -481.739)" fill="none" stroke="#42413b" stroke-miterlimit="10" stroke-width="1.399"/><path d="M360.454,600.052c5.291-1.18,8.953,18.766,21.217,23.916,2.453.39,6.086-2.575,6.086-3.925-.6-8.935-6.291-14.067-10.868-18.887-3.355-3.531-6.6-10.941-9.5-12.264a36.581,36.581,0,0,0-8.94-1.31S356.1,601.022,360.454,600.052Z" transform="translate(-243.767 -455.558)" fill="#72320f"/><path d="M362.461,609.506c4.553-1.015,7.9,13.6,16.553,20.988" transform="translate(-245.774 -465.012)" fill="none" stroke="#571c07" stroke-miterlimit="10" stroke-width="1.131"/><g transform="translate(56.545)"><path d="M340.52,419.335s2.142,9.025.577,11.154c3.93-2.205,1.587-12.382.7-13.444S340.52,419.335,340.52,419.335Z" transform="translate(-292.836 -381.762)" fill="#42413b"/><path d="M343.379,422.04c-1.429-.175-3.853,1.571-4.519,2.06l-.039,4.668c.445.133,5.254,2.128,6.2-2.013C345.209,425.948,346.141,422.379,343.379,422.04Z" transform="translate(-292.102 -384.005)" fill="#e99277"/><path d="M345.161,427.507a1.755,1.755,0,0,0-1.717-.982c-1.091.116-1.908,1.727-1.908,1.727a3.889,3.889,0,0,1,2.61,1.592c-.088-1.783-1.18-1.931-1.18-1.931s.319-.612.587-.583A4.887,4.887,0,0,1,345.161,427.507Z" transform="translate(-293.275 -385.945)" fill="#aa6e4e"/><path d="M294.839,455.091s.789,11.157-1.26,14.777c0,0,7.48,1.91,6.92.468s.273-13.975.273-13.975Z" transform="translate(-272.548 -398.296)" fill="#eeae8b"/><path d="M291.814,424.128c3.227,0,15.873-2.508,18.359-20.414,2.739-19.269-11.141-28.1-19.423-28.1-13.888,0-27.473,12.225-20.849,30.425C276.228,423.424,288.587,424.128,291.814,424.128Z" transform="translate(-261.567 -363.946)" fill="#fdc6a8"/><path d="M314.806,414.854c.567,0,.413,1.929,2.039,3.838,2.018,1.384,2.505,4.208.8,5.069C311.316,426.01,314.239,414.854,314.806,414.854Z" transform="translate(-281.218 -380.905)" fill="#e99277"/><path d="M297.1,440.443a8.236,8.236,0,0,0,7.069,5.007,9.411,9.411,0,0,0,8.073-3.5C308.33,442.228,301.076,441.125,297.1,440.443Z" transform="translate(-274.071 -391.965)" fill="#7b3016"/><path d="M295.946,436.815a8.751,8.751,0,0,0,.656,2.06c3.974.682,11.228,1.785,15.142,1.508a12.9,12.9,0,0,0,1.868-2.765Z" transform="translate(-273.571 -390.397)" fill="#f3e8dd"/><path d="M276.8,470.88c4.459-.291,6.715,4.061,6.715,4.061s3.459,6.107,9.672,6.665,7.532-10.282,7.151-11.741c0-1.967-3.336-4.378-5.094-4.441a2.39,2.39,0,0,0-2.261,1.769,2.854,2.854,0,0,1-.326,1.928c-1.059,1.3-5.323.574-5.323.574s.926-2.361-1.454-2.848c-2.791-.571-5.21,1.115-6.5,1.259C276.658,468.411,275.909,471.2,276.8,470.88Z" transform="translate(-265.141 -402.761)" fill="#4052ae"/><path d="M256.783,373.761c-1.065-.01,1.5-12.476,5.157-15.138s11.4-4.991,14.85-2.495.872,7.892,0,9.648c-.325.656-3.9.064-7.112,1.606-2.149,1.032-3.722,2.713-6.146,3.717C260.321,372.43,258.113,373.774,256.783,373.761Z" transform="translate(-256.539 -355.063)" fill="#42413b"/><path d="M308.24,385.537c1.8-1.113,3.378-5.324,1.76-10.48s-23.365-6.221-32.7-2.348-12.606,13.181-12.97,17.413,3.919,13.7,3.919,13.7,3.225-4.457,4.165-4.071,1.67,4.931-.557,9.9c4.976-2.335,2.247-9.513,2.125-10.974s4.072-9.654,4.072-9.654a11.938,11.938,0,0,1-.754,5.04c20.1,2.945,22.786-8.8,21.944-7.036.488,2.162.186,3.343-.62,5.656,3.592-2.554,2.953-6.121,4.1-6.822C306.043,384.636,306.437,386.65,308.24,385.537Z" transform="translate(-259.897 -361.681)" fill="#42413b"/><path d="M267.64,421.236c1.982,0,4.674.976,5.461,3.583a2.454,2.454,0,0,1-.955,2.672c-.428.3-1.32.288-1.906.571a4.223,4.223,0,0,1-5.517-1.211C263.7,425.25,264.794,421.236,267.64,421.236Z" transform="translate(-259.914 -383.663)" fill="#e99277"/><path d="M269.109,425.444c.215-.282.717-.47,2.351-.094,1.226.282,2.539,1.734,2.342,2.293-.049.139-1.726-.618-2.464-.366a13.472,13.472,0,0,0-2.422,1.928c-.466-1.29,1.808-2.622,2.589-2.722C270.861,425.57,268.948,425.7,269.109,425.444Z" transform="translate(-261.862 -385.351)" fill="#aa6e4e"/><path d="M291.338,382.658s.693,7.074-.612,9.142" transform="translate(-271.315 -366.99)" fill="none" stroke="#000" stroke-miterlimit="10" stroke-width="1.131"/><path d="M308.124,379.208s3.019,2.612-1.877,13.821" transform="translate(-278.023 -365.499)" fill="none" stroke="#000" stroke-miterlimit="10" stroke-width="1.131"/><path d="M328.866,379.208s3.374,1.741,0,8.924" transform="translate(-287.799 -365.499)" fill="none" stroke="#000" stroke-miterlimit="10" stroke-width="1.131"/><path d="M279.033,360.986s2.6-.687,2.612,5.978" transform="translate(-266.261 -357.614)" fill="none" stroke="#000" stroke-miterlimit="10" stroke-width="1.131"/><path d="M315.046,415.358c.553,0,.4,1.881,1.988,3.741,1.968,1.348,2.443,4.1.785,4.94C311.644,426.231,314.493,415.358,315.046,415.358Z" transform="translate(-281.335 -381.123)" fill="#e99277"/><path d="M330.521,415.99c-1.161-.5-1.955.868-1.844,2s-.183,1.939,1.185,2.339S331.681,416.491,330.521,415.99Z" transform="translate(-287.713 -381.349)" fill="#a26a4a"/><path d="M295.174,419.947c.616.925,1.867-.183,2.2-1.311s.236-2.658-.446-2.988C295.806,415.108,293.821,417.914,295.174,419.947Z" transform="translate(-273.041 -381.219)" fill="#a26a4a"/><path d="M297,473.647s6.318,5.05,6.085-1.295" transform="translate(-274.027 -405.756)" fill="none" stroke="#2c2963" stroke-miterlimit="10" stroke-width="1.131"/><path d="M291.8,474.382s.84,3.929-2.2,3.768" transform="translate(-270.826 -406.633)" fill="none" stroke="#2c2963" stroke-miterlimit="10" stroke-width="0.566"/><path d="M297.309,478.164s1.84,2.093,1.9,3.235-3.365,2.855-3.365,2.855" transform="translate(-273.528 -408.268)" fill="none" stroke="#2c2963" stroke-miterlimit="10" stroke-width="0.566"/><path d="M303.784,478.164s2.427.714,3.218.345,1.015,5.555-1.609,7.2" transform="translate(-276.959 -408.268)" fill="none" stroke="#2c2963" stroke-miterlimit="10" stroke-width="0.566"/><path d="M307.718,474.44s1.193,1.323,3.1-.68,1.142,3.518,1.9,4.279" transform="translate(-278.659 -406.176)" fill="none" stroke="#2c2963" stroke-miterlimit="10" stroke-width="0.566"/></g><g transform="translate(0 67.031)"><path d="M188.047,586.217l-2.442,1.979s-6.987-.081-9.315-.115-15.466,4.824-15.466,4.824c1,.882,3.706,1.016,3.706,1.016l-7.577,3.7c.718,1.542,3.461.073,3.461.073l-2.46,2.106c1.3,1.269,6.093-2.3,6.093-2.3l-2.179,2.544c2.527.932,12.485-7.5,12.485-7.5l7.737,1.074s-4.978,5.2-2.309,6.389c0,0,4.542-4.519,8.075-8.482.788-.5,2.952-2.188,2.952-2.188Z" transform="translate(-156.953 -521.999)" fill="#fdc6a8"/><path d="M214.781,581.133c-3.529,2.276-5.614,3.963-5.584,4.206.165,1.385,2.784,3.072,2.784,3.072a59.357,59.357,0,0,1,5.375-4Z" transform="translate(-179.533 -519.802)" fill="#e87e33"/><path d="M247.461,512.383c1.786-5.328,9.773-29.686,9.374-35.561-.136-2,.383-3.994-4.432-3.67-6.312-.432-11.053,35.824-11.575,36.374a43.238,43.238,0,0,1-6.858,9.21,100.146,100.146,0,0,1-10.561,9c-3.119,2.108-5.465,5.082-4.534,6.715.262.459,1.812,3.428,3.477,3.64,1.523.192,4.465-.891,6.941-2.643C232.83,532.942,245.674,517.712,247.461,512.383Z" transform="translate(-183.627 -473.118)" fill="#f79f4e"/><path d="M283.343,495.746s.886-1.264,1.787-1.176" transform="translate(-211.579 -482.387)" fill="none" stroke="#e87e33" stroke-miterlimit="10" stroke-width="0.566"/><path d="M280.761,499.335c.91-4.051,1.723-5.276,2.359-8.9" transform="translate(-210.463 -480.604)" fill="none" stroke="#e87e33" stroke-miterlimit="10" stroke-width="0.566"/></g></g></g></g></g></svg>