<?xml version="1.0" encoding="utf-8"?>
<!-- Generator: Adobe Illustrator 24.0.3, SVG Export Plug-In . SVG Version: 6.00 Build 0)  -->
<svg version="1.1" id="Layer_1" xmlns="http://www.w3.org/2000/svg" xmlns:xlink="http://www.w3.org/1999/xlink" x="0px" y="0px"
	 viewBox="0 0 194.6 194.7" style="enable-background:new 0 0 194.6 194.7;" xml:space="preserve">
<style type="text/css">
	.st0{fill:url(#SVGID_1_);}
	.st1{fill:#282560;}
	.st2{fill:url(#SVGID_2_);}
	.st3{fill:#1C698A;}
	.st4{fill:#635D63;}
	.st5{fill:#FFFFFF;}
	.st6{opacity:0.6;fill:#FFFFFF;}
	.st7{fill:none;}
	.st8{fill:#E0E0E0;}
	.st9{fill:#4690F9;}
	.st10{fill:#D81B61;}
	.st11{fill:#71EA49;}
	.st12{fill:url(#SVGID_3_);}
	.st13{fill:#00435F;}
	.st14{opacity:0.2;fill:#FFFFFF;}
	.st15{opacity:0.7;fill:#FFFFFF;}
	.st16{opacity:0.5;fill:#FFFFFF;}
	.st17{opacity:0.85;fill:#FFFFFF;}
	.st18{opacity:0.58;fill:#FFFFFF;}
	.st19{opacity:0.36;fill:#FFFFFF;}
	.st20{opacity:0.8;fill:#FFFFFF;}
	.st21{opacity:0.2;fill:#464646;}
	.st22{opacity:0.7;fill:#464646;}
	.st23{opacity:0.5;fill:#464646;}
	.st24{opacity:0.85;fill:#464646;}
	.st25{opacity:0.58;fill:#464646;}
	.st26{opacity:0.36;fill:#464646;}
	.st27{opacity:0.75;fill:#464646;}
	.st28{fill:url(#SVGID_4_);}
	.st29{fill:#464646;}
	.st30{fill:#3A8DDE;}
	.st31{fill:#D50057;}
	.st32{fill:#38D430;}
	.st33{fill:#6CDD43;}
	.st34{fill:#E5E1E6;}
	.st35{fill:#404041;}
</style>
<g>
	<g>
		<g>
			<g>
				<path class="st7" d="M137.5,43.8c-5.3,7.2-3.8,17.3,3.4,22.6c2.8,2.1,6.2,3.1,9.4,3.2c5,0,10-2.2,13.2-6.6
					c5.3-7.2,3.8-17.3-3.4-22.6c-2.8-2.1-6.2-3.1-9.4-3.2C145.7,37.2,140.7,39.4,137.5,43.8z"/>
				<path class="st8" d="M171.8,87.4c-2.6,3.5-5.5,6.7-8.7,9.6c0.8,10.9-2.1,22.2-9.1,31.7c-3.8,5.2-8.5,9.3-13.6,12.4
					c2.5-10,1.6-20.5-2.3-29.9c-5.1,1.5-10.4,2.4-15.7,2.7c-20.3,21.5-46.2,36.9-74.2,43.6c-3.9,1-7.7,1.5-11.3,1.6
					c15.4,14.9,36.3,24.2,59.4,24.4c47.7,0.4,86.7-38,87.1-85.7c0.1-8.7-1.2-17.1-3.5-25C177.9,78,175.2,82.8,171.8,87.4z"/>
				<path class="st9" d="M103.5,105.9c-6.2,4.6-13,8.7-20.1,12.3c-0.8,0.4-1.6,0.8-2.5,1.2c-9.3,4.4-19.1,8-29.2,10.5
					c-1.5,0.4-3.2,0.8-4.8,1.3C40.4,133,33,135,26.2,135c-2.3,0-4.4-0.3-6.4-0.8c-0.4-0.1-0.9-0.3-1.3-0.4c-3.4-1.5-6.5-5.4-8.2-9.6
					c-0.9,9,0.7,16.4,4.7,21.6c4.2,5.4,11.1,8.2,19.6,8.3c3.8,0,7.9-0.5,12.3-1.5c25.5-6.2,49.1-19.7,68.2-38.6
					c-2.8-0.2-5.7-0.5-8.5-1C105.5,110.6,104.4,108.2,103.5,105.9z"/>
				<g>
					<g>
						<path class="st7" d="M32.8,92.6c0.7,0,1.4-0.1,2.1-0.2C34.2,92.5,33.5,92.5,32.8,92.6z"/>
						<path class="st10" d="M32.8,92.6c-7.2,0.5-14.5,0.8-21.7,0.6c-0.2,4.5-0.1,8.9,0.4,13.4c0.2,2.2,0.5,4.5,0.9,6.7
							c0.4,2.1,0.7,4.2,1.5,6.2c1.2,2.9,2.9,5.7,5.5,7.5c6.3,4.1,16.8,1.8,24-0.2c-5.8-11.1-8-22.8-6.8-34.4
							c-0.6,0.1-1.2,0.1-1.8,0.1C34.2,92.5,33.5,92.6,32.8,92.6z"/>
						<path class="st9" d="M80.8,12.8c-8.6,1.7-17,4.7-24.7,8.9c-4.5,2.4-8.7,5.2-12.7,8.3c-11.8,9.4-21.1,21.7-26.6,35.7
							c-3.3,8.5-5.2,17.5-5.7,26.5c0,0.2,0,0.4,0,0.6c0,0.1,0,0.2,0,0.3c0,0,0,0,0,0c7.2,0.2,14.5-0.1,21.7-0.6
							c0.7-0.1,1.4-0.1,2.1-0.2c0.6-0.1,1.2-0.1,1.8-0.1l0,0c1.5-14.9,8.6-29.3,19.7-39.5c11-10.2,25.9-16.2,40.9-16.5
							c0.1-8.4,0-16.9,0.1-25.3C91.7,11.1,86.4,11.7,80.8,12.8z"/>
					</g>
					<path class="st11" d="M104.1,11.3c-2.2-0.2-4.7-0.2-6.9-0.2l-0.1,25.3c6.1-0.1,12.1,0.9,17.9,2.6c6.7-7.7,14.8-13.5,23.8-17.2
						C128,15.9,116.3,12.2,104.1,11.3z"/>
				</g>
				<path class="st10" d="M140.5,141.1c5.2-3.1,9.8-7.3,13.6-12.4c7-9.5,9.9-20.8,9.1-31.7c3.1-2.9,6-6,8.7-9.6
					c3.4-4.6,6-9.4,8.1-14.4c7.3-18.1,6-38.4-3-55.3c-3.9-0.7-7.9-1.1-11.8-1.2c-9-0.1-17.9,1.7-26.2,5.2
					c-8.9,3.8-17.1,9.6-23.8,17.2c-1.2,1.3-2.3,2.7-3.4,4.2c-2.6,3.5-4.8,7.3-6.6,11.1c-10.7,2.5-20.6,8.6-27.6,18.1
					c-3.8,5.2-6.4,10.8-7.9,16.7c7.6-4.6,16.3-6.9,25.1-6.9c1.4,0,2.8,0.1,4.2,0.2c0.1,8,1.6,16,4.5,23.5c0.9,2.4,2,4.7,3.2,7
					c2.8,0.5,5.6,0.9,8.5,1c1.1,0.1,2.2,0.1,3.3,0.1c1.3,0,2.6,0,3.9-0.1c5.3-0.3,10.6-1.2,15.7-2.7
					C142.1,120.6,142.9,131.1,140.5,141.1z M163.6,62.9c-3.2,4.3-8.2,6.6-13.2,6.6c-3.3,0-6.6-1.1-9.4-3.2
					c-7.2-5.3-8.7-15.4-3.4-22.6c3.2-4.3,8.2-6.6,13.2-6.6c3.3,0,6.6,1.1,9.4,3.2C167.3,45.6,168.8,55.8,163.6,62.9z"/>
			</g>
		</g>
	</g>
	<path class="st5" d="M163.6,62.9c-3.2,4.3-8.2,6.6-13.2,6.6c-3.3,0-6.6-1.1-9.4-3.2c-7.2-5.3-8.7-15.4-3.4-22.6
		c3.2-4.3,8.2-6.6,13.2-6.6c3.3,0,6.6,1.1,9.4,3.2C167.3,45.6,168.8,55.8,163.6,62.9z"/>
</g>
</svg>
